<?xml version="1.0" encoding="utf-8"?>
<!-- Generator: Adobe Illustrator 18.0.0, SVG Export Plug-In . SVG Version: 6.00 Build 0)  -->
<!DOCTYPE svg PUBLIC "-//W3C//DTD SVG 1.0//EN" "http://www.w3.org/TR/2001/REC-SVG-20010904/DTD/svg10.dtd">
<svg version="1.0" id="Ñëîé_1" xmlns="http://www.w3.org/2000/svg" xmlns:xlink="http://www.w3.org/1999/xlink" x="0px" y="0px"
	 viewBox="0 0 322.6 100.5" enable-background="new 0 0 322.6 100.5" xml:space="preserve">
<path fill="#1E1E1E" d="M120.5,18.7h5.6l10.4,16.9V18.7h5.3v25.2h-5.5L125.9,27v16.9h-5.3V18.7z"/>
<path fill="#1E1E1E" d="M154.8,44.4c-5.6,0-9.3-3.8-9.3-9.5c0-5.7,3.9-9.8,9.2-9.8c5.5,0,9,4,9,10.4V36h-13.1
	c0.1,3.1,1.6,4.8,4.3,4.8c1.8,0,3-0.8,3.7-2.7h4.8C162.2,42.2,158.9,44.4,154.8,44.4z M154.6,28.7c-2.2,0-3.8,1.6-4.1,4.1h8
	C158.3,30.6,157.1,28.7,154.6,28.7z"/>
<path fill="#1E1E1E" d="M176.5,29h-3.7v8.6c0,1.8,0,2.6,2.2,2.6c0.5,0,0.9,0,1.5-0.1v3.8c-1.4,0.1-1.9,0.1-3,0.1
	c-4.3,0-5.7-1.1-5.7-5.6V29h-3v-3.4h3v-5.5h5v5.5h3.7V29z"/>
<path fill="#034F7D" d="M179.5,18.7h10.2c7.8,0,12.2,4.5,12.2,12.6c0,8.1-4.4,12.6-12.2,12.6h-10.2V18.7z M189,39.3
	c5.1,0,7.3-2.9,7.3-8c0-5.1-2.3-8-7.3-8h-4v16H189z"/>
<path fill="#034F7D" d="M213.7,44.4c-5.6,0-9.3-3.8-9.3-9.5c0-5.7,3.9-9.8,9.2-9.8c5.5,0,9,4,9,10.4V36h-13.1
	c0.1,3.1,1.6,4.8,4.3,4.8c1.8,0,3-0.8,3.7-2.7h4.8C221.1,42.2,217.8,44.4,213.7,44.4z M213.5,28.7c-2.2,0-3.8,1.6-4.1,4.1h8
	C217.2,30.6,216,28.7,213.5,28.7z"/>
<path fill="#034F7D" d="M241.7,25.6l-6.2,18.2h-5.6l-6.3-18.2h5.3l3.9,12.4l3.9-12.4H241.7z"/>
<path fill="#1E1E1E" d="M262.1,43.9h-17.8V18.7h5.5v20.4h12.3V43.9z"/>
<path fill="#1E1E1E" d="M276.6,43.9c-0.2-0.7-0.3-1-0.4-1.8c-1.6,1.6-3.7,2.3-5.9,2.3c-4,0-6.5-2.1-6.5-5.5c0-4.8,4.3-5.3,8-5.8
	c3.3-0.4,4.5-0.7,4.5-2.2c0-1.7-1.1-2.4-3.3-2.4c-2.3,0-3.3,0.7-3.6,2.8h-4.7c0.3-4.1,3.2-6.2,8.5-6.2c3.7,0,8,0.8,8,5.9v7.9
	c0,1.7,0,3.4,0.6,4.9H276.6z M272.7,35.9c-1.7,0.3-3.7,0.5-3.7,2.7c0,1.5,1,2.4,2.8,2.4c2.6,0,4.5-1.4,4.5-4.1V35
	C275.1,35.7,274,35.7,272.7,35.9z"/>
<path fill="#1E1E1E" d="M290,27.8c1.4-1.8,3.4-2.7,5.8-2.7c5,0,7.8,4.2,7.8,9.4c0,5.8-3.3,9.8-8.1,9.8c-2.4,0-4.4-0.8-5.7-2.8l0,2.3
	H285V18.7h5V27.8z M289.8,34.6c0,3.5,1.7,5.7,4.4,5.7c2.6,0,4.3-2.3,4.3-5.7c0-3.4-1.7-5.6-4.3-5.6C291.5,29,289.8,31.2,289.8,34.6z
	"/>
<path fill="#1E1E1E" d="M317.4,30.9c-0.3-1.9-1.4-2.5-3.5-2.5c-1.8,0-2.8,0.7-2.8,1.8c0,1.5,1.6,1.7,4.5,2.3
	c3.3,0.7,7.1,1.5,7.1,5.7c0,3.8-3.1,6.2-8.3,6.2c-4.6,0-8.5-1.8-8.6-6.5h4.8c0.2,2.2,1.6,3,3.9,3c2.1,0,3.3-0.9,3.3-2.3
	c0-1.6-1.5-1.8-4.1-2.4c-3.3-0.7-7.5-1.2-7.5-5.6c0-3.6,2.9-5.6,8-5.6c4.2,0,7.8,1.6,7.9,5.8H317.4z"/>
<g>
	<path fill="#4D4D4E" stroke="#4D4D4E" stroke-width="0.75" stroke-miterlimit="10" d="M123,63.7h-1.4V53.1h1.4V63.7z"/>
	<path fill="#4D4D4E" stroke="#4D4D4E" stroke-width="0.75" stroke-miterlimit="10" d="M135,54.3h-3.6v9.4H130v-9.4h-3.6v-1.2h8.6
		V54.3z"/>
	<path fill="#4D4D4E" stroke="#4D4D4E" stroke-width="0.75" stroke-miterlimit="10" d="M149.2,64c-3,0-4.9-2.2-4.9-5.6
		c0-3.1,1.8-5.6,5-5.6c2.1,0,4.2,1.2,4.4,3.4h-1.4c-0.3-1.4-1.5-2.2-3-2.2c-2.5,0-3.6,2.1-3.6,4.4c0,2.7,1.4,4.4,3.6,4.4
		c1.8,0,2.9-1.1,3.1-3.1h1.4C153.6,62.4,151.8,64,149.2,64z"/>
	<path fill="#4D4D4E" stroke="#4D4D4E" stroke-width="0.75" stroke-miterlimit="10" d="M164.6,59.8c0,2.6-1.4,4.2-3.7,4.2
		c-2.4,0-3.8-1.5-3.8-4.1c0-2.5,1.5-4.1,3.8-4.1C163.3,55.8,164.6,57.3,164.6,59.8z M158.5,59.9c0,1.9,0.9,3,2.5,3
		c1.5,0,2.4-1.1,2.4-3c0-1.8-0.9-3-2.4-3S158.5,58,158.5,59.9z"/>
	<path fill="#4D4D4E" stroke="#4D4D4E" stroke-width="0.75" stroke-miterlimit="10" d="M169.6,57.2c0.6-0.9,1.5-1.4,2.6-1.4
		c1.9,0,2.6,1,2.6,2.8v5.1h-1.3v-4.6c0-1.2-0.1-2.3-1.7-2.3c-1.7,0-2.2,1.3-2.2,2.8v4h-1.3V56h1.2V57.2z"/>
	<path fill="#4D4D4E" stroke="#4D4D4E" stroke-width="0.75" stroke-miterlimit="10" d="M183.4,58.2c-0.1-1-0.8-1.4-1.9-1.4
		c-1,0-1.6,0.4-1.6,1c0,0.9,1,1,2.1,1.2c1.3,0.3,3,0.7,3,2.4c0,1.5-1.3,2.5-3.2,2.5c-2.1,0-3.3-0.9-3.3-2.7h1.3
		c0.1,1.2,0.9,1.6,2.1,1.6c1.1,0,1.9-0.5,1.9-1.3c0-0.9-0.9-1-1.9-1.3c-1.3-0.3-3.1-0.5-3.1-2.3c0-1.4,1.2-2.3,3-2.3
		c1.7,0,3.1,0.8,3.1,2.5H183.4z"/>
	<path fill="#4D4D4E" stroke="#4D4D4E" stroke-width="0.75" stroke-miterlimit="10" d="M195,63.7h-1.2v-1.2c-0.7,1-1.5,1.4-2.7,1.4
		c-1.6,0-2.6-0.9-2.6-2.6V56h1.3v5c0,1.1,0.3,1.9,1.6,1.9c1.7,0,2.3-1.2,2.3-2.8v-4h1.3V63.7z"/>
	<path fill="#4D4D4E" stroke="#4D4D4E" stroke-width="0.75" stroke-miterlimit="10" d="M200.5,63.7h-1.3V53.1h1.3V63.7z"/>
	<path fill="#4D4D4E" stroke="#4D4D4E" stroke-width="0.75" stroke-miterlimit="10" d="M208,57h-1.5v4.5c0,0.7,0,1.1,0.9,1.1
		c0.3,0,0.4,0,0.7,0v1.1c-0.4,0-0.6,0.1-1,0.1c-1.9,0-1.8-1-1.8-2.7V57h-1.3v-1h1.3v-2.3h1.3V56h1.5V57z"/>
	<path fill="#4D4D4E" stroke="#4D4D4E" stroke-width="0.75" stroke-miterlimit="10" d="M212.9,54.6h-1.3v-1.6h1.3V54.6z M212.9,63.7
		h-1.3V56h1.3V63.7z"/>
	<path fill="#4D4D4E" stroke="#4D4D4E" stroke-width="0.75" stroke-miterlimit="10" d="M218.3,57.2c0.6-0.9,1.5-1.4,2.6-1.4
		c1.9,0,2.6,1,2.6,2.8v5.1h-1.3v-4.6c0-1.2-0.1-2.3-1.7-2.3c-1.7,0-2.2,1.3-2.2,2.8v4h-1.3V56h1.2V57.2z"/>
	<path fill="#4D4D4E" stroke="#4D4D4E" stroke-width="0.75" stroke-miterlimit="10" d="M234.3,62.9c0,1.3-0.1,1.9-0.5,2.6
		c-0.6,0.9-1.6,1.4-3.1,1.4c-1.6,0-3-0.5-3.3-2.3h1.3c0.2,0.9,0.8,1.3,2,1.3c1.6,0,2.2-0.7,2.3-2.5l0-0.9c-0.5,1-1.3,1.4-2.5,1.4
		c-2.1,0-3.4-1.5-3.4-3.9c0-2.1,1.2-4.1,3.5-4.1c1.1,0,2,0.5,2.4,1.3V56h1.2V62.9z M228.6,59.9c0,1.7,0.9,2.8,2.2,2.8
		c1.4,0,2.3-1.2,2.3-3c0-1.8-0.9-2.8-2.3-2.8C229.4,56.9,228.6,58,228.6,59.9z"/>
	<path fill="#4D4D4E" stroke="#4D4D4E" stroke-width="0.75" stroke-miterlimit="10" d="M246.5,63.7h-1.4V53.1h1.4V63.7z"/>
	<path fill="#4D4D4E" stroke="#4D4D4E" stroke-width="0.75" stroke-miterlimit="10" d="M252.1,57.2c0.6-0.9,1.5-1.4,2.6-1.4
		c1.9,0,2.6,1,2.6,2.8v5.1H256v-4.6c0-1.2-0.1-2.3-1.7-2.3c-1.7,0-2.2,1.3-2.2,2.8v4h-1.3V56h1.2V57.2z"/>
	<path fill="#4D4D4E" stroke="#4D4D4E" stroke-width="0.75" stroke-miterlimit="10" d="M264.7,64c-2.4,0-3.7-1.6-3.7-4
		c0-2.6,1.4-4.2,3.7-4.2c1.9,0,3.1,1,3.3,2.7h-1.3c-0.2-1.1-0.9-1.7-1.9-1.7c-1.5,0-2.4,1.2-2.4,3c0,1.9,0.9,3,2.3,3
		c1.2,0,1.9-0.7,2.1-2h1.3C267.8,62.8,266.6,64,264.7,64z"/>
	<path fill="#4D4D4E" stroke="#4D4D4E" stroke-width="0.75" stroke-miterlimit="10" d="M273.6,63.7h-1.7v-1.7h1.7V63.7z"/>
</g>
<path fill="#034F7D" d="M82.8,29.4c-4.7,0-9,2.1-12,5.4c-7.4-0.5-17.7-3.8-24.1-7.9c0.1-0.8,0.2-1.7,0.2-2.5c0-0.9-0.1-1.7-0.3-2.5
	c4.3-2.4,13.5-4.7,13.5-4.7s2.6,4.6,7.4,4.5c4.6-0.2,8.2-3.8,8.2-8.3C75.8,8.7,72,5,67.5,5c-4.3,0-8,4.4-8.2,7.7
	c-3.6,2.6-7,3.9-14.5,4.6c-2.4-3.9-6.7-6.4-11.6-6.4c-7.5,0.1-13.6,6.2-13.5,13.7c0.1,7.5,6.2,13.6,13.7,13.5c4.7,0,8.7-2.4,11.2-6
	c5,1.3,14,4.7,22,12.4c0,0.5-0.1,1-0.1,1.5c0,1.1,0.1,2.1,0.3,3.1c-3.9,3.2-13.7,10-27.5,11.4c-4.2-4-9.8-6.4-16-6.4
	C10.7,54.2,0.5,64.5,0.6,77.2C0.7,89.8,11.1,100,23.7,99.9c12.6-0.1,22.8-10.4,22.7-23.1c0-1.9-0.3-3.8-0.7-5.6
	c5.7-6.4,16.1-13.3,24-15.7c3,4.1,7.9,6.7,13.4,6.7c9.1-0.1,16.3-7.5,16.3-16.6C99.2,36.6,91.8,29.3,82.8,29.4z"/>
<rect x="64.8" y="43.2" transform="matrix(1.147345e-003 -1 1 1.147345e-003 64.6729 152.5183)" fill="#4D4D4E" stroke="#4D4D4E" stroke-width="0.75" stroke-miterlimit="10" width="87.8" height="1.4"/>
</svg>
